<svg width="199" height="255" viewBox="0 0 199 255" fill="none" xmlns="http://www.w3.org/2000/svg">
<g filter="url(#filter0_d)">
<rect width="193.114" height="250" rx="10" fill="white"/>
<rect x="0.5" y="0.5" width="192.114" height="249" rx="9.5" stroke="black"/>
</g>
<path d="M106.764 35.4372C107.202 34.7723 106.725 33.8872 105.929 33.8872H99.2096C98.5421 33.8872 98.062 33.2457 98.2502 32.6053L101.545 21.3935C101.869 20.2911 100.382 19.602 99.7502 20.5615L86.3501 40.9101C85.9122 41.575 86.3891 42.4601 87.1852 42.4601H93.9042C94.5717 42.4601 95.0518 43.1016 94.8636 43.7421L91.5689 54.9538C91.245 56.0562 92.7316 56.7454 93.3636 55.7858L106.764 35.4372Z" fill="#0000FF"/>
<rect x="15.7186" y="90.5689" width="73.3533" height="8.98204" rx="4.49102" fill="#F2F2F2"/>
<rect x="15.7186" y="151.946" width="92.0659" height="8.98204" rx="4.49102" fill="#F2F2F2"/>
<rect x="15.7186" y="167.665" width="92.0659" height="8.98204" rx="4.49102" fill="#F2F2F2"/>
<rect x="15.7186" y="183.383" width="92.0659" height="8.98204" rx="4.49102" fill="#F2F2F2"/>
<rect x="15.7186" y="202.096" width="161.677" height="1.49701" rx="0.748503" fill="#F2F2F2"/>
<rect x="15.7186" y="213.323" width="92.0659" height="8.98204" rx="4.49102" fill="#F2F2F2"/>
<rect x="144.461" y="151.946" width="32.9341" height="8.98204" rx="4.49102" fill="#F2F2F2"/>
<rect x="144.461" y="126.204" width="32.9341" height="8.98204" rx="4.49102" fill="#F2F2F2"/>
<rect x="144.461" y="167.665" width="32.9341" height="8.98204" rx="4.49102" fill="#F2F2F2"/>
<rect x="144.461" y="183.383" width="32.9341" height="8.98204" rx="4.49102" fill="#F2F2F2"/>
<rect x="144.461" y="213.323" width="32.9341" height="8.98204" rx="4.49102" fill="#F2F2F2"/>
<rect x="15.7186" y="74.8503" width="139.222" height="8.98204" rx="4.49102" fill="#F2F2F2"/>
<path d="M20.6355 127.802C20.3115 127.802 20.0235 127.736 19.7715 127.604C19.5315 127.46 19.3335 127.28 19.1775 127.064C19.0215 126.836 18.9015 126.584 18.8175 126.308C18.7455 126.02 18.7095 125.726 18.7095 125.426C18.7095 125.138 18.7515 124.856 18.8355 124.58C18.9195 124.304 19.0455 124.058 19.2135 123.842C19.3815 123.626 19.5855 123.452 19.8255 123.32C20.0655 123.188 20.3355 123.122 20.6355 123.122C20.9595 123.122 21.2475 123.188 21.4995 123.32C21.7515 123.452 21.9615 123.632 22.1295 123.86C22.3095 124.076 22.4415 124.328 22.5255 124.616C22.6215 124.892 22.6695 125.174 22.6695 125.462C22.6695 125.774 22.6275 126.074 22.5435 126.362C22.4595 126.638 22.3335 126.884 22.1655 127.1C21.9975 127.316 21.7875 127.49 21.5355 127.622C21.2835 127.742 20.9835 127.802 20.6355 127.802ZM18.7995 130.628H16.3695C16.4415 131.18 16.5915 131.672 16.8195 132.104C17.0475 132.536 17.3415 132.902 17.7015 133.202C18.0615 133.502 18.4755 133.724 18.9435 133.868C19.4115 134.024 19.9155 134.102 20.4555 134.102C21.3555 134.102 22.1175 133.91 22.7415 133.526C23.3655 133.13 23.8755 132.62 24.2715 131.996C24.6675 131.36 24.9555 130.652 25.1355 129.872C25.3155 129.092 25.4055 128.312 25.4055 127.532C25.4055 126.74 25.3335 125.954 25.1895 125.174C25.0455 124.394 24.7875 123.698 24.4155 123.086C24.0435 122.462 23.5455 121.964 22.9215 121.592C22.3095 121.208 21.5235 121.016 20.5635 121.016C19.9035 121.016 19.3035 121.136 18.7635 121.376C18.2235 121.616 17.7555 121.946 17.3595 122.366C16.9755 122.774 16.6755 123.26 16.4595 123.824C16.2555 124.376 16.1535 124.976 16.1535 125.624C16.1535 126.128 16.2315 126.626 16.3875 127.118C16.5435 127.61 16.7895 128.048 17.1255 128.432C17.4855 128.828 17.9235 129.146 18.4395 129.386C18.9555 129.614 19.4835 129.728 20.0235 129.728C20.6355 129.728 21.1755 129.62 21.6435 129.404C22.1115 129.188 22.5195 128.828 22.8675 128.324L22.9035 128.36C22.8795 128.708 22.8255 129.104 22.7415 129.548C22.6695 129.992 22.5435 130.412 22.3635 130.808C22.1835 131.192 21.9435 131.522 21.6435 131.798C21.3435 132.062 20.9595 132.194 20.4915 132.194C20.0475 132.194 19.6755 132.038 19.3755 131.726C19.0755 131.414 18.8835 131.048 18.7995 130.628ZM28.7114 127.514C28.7114 127.298 28.7114 127.04 28.7114 126.74C28.7234 126.428 28.7474 126.11 28.7834 125.786C28.8194 125.462 28.8794 125.144 28.9634 124.832C29.0474 124.508 29.1614 124.22 29.3054 123.968C29.4614 123.716 29.6534 123.512 29.8814 123.356C30.1214 123.2 30.4154 123.122 30.7634 123.122C31.1114 123.122 31.4054 123.2 31.6454 123.356C31.8854 123.512 32.0834 123.716 32.2394 123.968C32.3954 124.22 32.5094 124.508 32.5814 124.832C32.6654 125.144 32.7254 125.462 32.7614 125.786C32.8094 126.11 32.8334 126.428 32.8334 126.74C32.8454 127.04 32.8514 127.298 32.8514 127.514C32.8514 127.874 32.8394 128.312 32.8154 128.828C32.7914 129.332 32.7134 129.824 32.5814 130.304C32.4614 130.772 32.2574 131.174 31.9694 131.51C31.6934 131.846 31.2914 132.014 30.7634 132.014C30.2474 132.014 29.8514 131.846 29.5754 131.51C29.2994 131.174 29.0954 130.772 28.9634 130.304C28.8434 129.824 28.7714 129.332 28.7474 128.828C28.7234 128.312 28.7114 127.874 28.7114 127.514ZM26.1554 127.514C26.1554 128.774 26.2754 129.83 26.5154 130.682C26.7674 131.522 27.1034 132.194 27.5234 132.698C27.9434 133.202 28.4294 133.562 28.9814 133.778C29.5454 133.994 30.1394 134.102 30.7634 134.102C31.3994 134.102 31.9934 133.994 32.5454 133.778C33.1094 133.562 33.6014 133.202 34.0214 132.698C34.4534 132.194 34.7894 131.522 35.0294 130.682C35.2814 129.83 35.4074 128.774 35.4074 127.514C35.4074 126.29 35.2814 125.264 35.0294 124.436C34.7894 123.596 34.4534 122.924 34.0214 122.42C33.6014 121.916 33.1094 121.556 32.5454 121.34C31.9934 121.124 31.3994 121.016 30.7634 121.016C30.1394 121.016 29.5454 121.124 28.9814 121.34C28.4294 121.556 27.9434 121.916 27.5234 122.42C27.1034 122.924 26.7674 123.596 26.5154 124.436C26.2754 125.264 26.1554 126.29 26.1554 127.514ZM38.7134 127.514C38.7134 127.298 38.7134 127.04 38.7134 126.74C38.7254 126.428 38.7494 126.11 38.7854 125.786C38.8214 125.462 38.8814 125.144 38.9654 124.832C39.0494 124.508 39.1634 124.22 39.3074 123.968C39.4634 123.716 39.6554 123.512 39.8834 123.356C40.1234 123.2 40.4174 123.122 40.7654 123.122C41.1134 123.122 41.4074 123.2 41.6474 123.356C41.8874 123.512 42.0854 123.716 42.2414 123.968C42.3974 124.22 42.5114 124.508 42.5834 124.832C42.6674 125.144 42.7274 125.462 42.7634 125.786C42.8114 126.11 42.8354 126.428 42.8354 126.74C42.8474 127.04 42.8534 127.298 42.8534 127.514C42.8534 127.874 42.8414 128.312 42.8174 128.828C42.7934 129.332 42.7154 129.824 42.5834 130.304C42.4634 130.772 42.2594 131.174 41.9714 131.51C41.6954 131.846 41.2934 132.014 40.7654 132.014C40.2494 132.014 39.8534 131.846 39.5774 131.51C39.3014 131.174 39.0974 130.772 38.9654 130.304C38.8454 129.824 38.7734 129.332 38.7494 128.828C38.7254 128.312 38.7134 127.874 38.7134 127.514ZM36.1574 127.514C36.1574 128.774 36.2774 129.83 36.5174 130.682C36.7694 131.522 37.1054 132.194 37.5254 132.698C37.9454 133.202 38.4314 133.562 38.9834 133.778C39.5474 133.994 40.1414 134.102 40.7654 134.102C41.4014 134.102 41.9954 133.994 42.5474 133.778C43.1114 133.562 43.6034 133.202 44.0234 132.698C44.4554 132.194 44.7914 131.522 45.0314 130.682C45.2834 129.83 45.4094 128.774 45.4094 127.514C45.4094 126.29 45.2834 125.264 45.0314 124.436C44.7914 123.596 44.4554 122.924 44.0234 122.42C43.6034 121.916 43.1114 121.556 42.5474 121.34C41.9954 121.124 41.4014 121.016 40.7654 121.016C40.1414 121.016 39.5474 121.124 38.9834 121.34C38.4314 121.556 37.9454 121.916 37.5254 122.42C37.1054 122.924 36.7694 123.596 36.5174 124.436C36.2774 125.264 36.1574 126.29 36.1574 127.514ZM51.9971 121.016V133.868H54.5531V130.664L55.5431 129.71L58.0991 133.868H61.1951L57.2891 127.982L60.7991 124.562H57.7751L54.5531 127.91V121.016H51.9971ZM74.6091 133.868L78.0651 121.016H75.2931L73.1871 129.872H73.1511L70.9551 121.016H68.3091L66.0771 129.764H66.0411L64.0071 121.016H61.1811L64.5831 133.868H67.4451L69.5871 125.12H69.6231L71.8011 133.868H74.6091ZM79.0971 121.016V133.868H81.6531V128.99C81.6531 128.042 81.8091 127.364 82.1211 126.956C82.4331 126.536 82.9371 126.326 83.6331 126.326C84.2451 126.326 84.6711 126.518 84.9111 126.902C85.1511 127.274 85.2711 127.844 85.2711 128.612V133.868H87.8271V128.144C87.8271 127.568 87.7731 127.046 87.6651 126.578C87.5691 126.098 87.3951 125.696 87.1431 125.372C86.8911 125.036 86.5431 124.778 86.0991 124.598C85.6671 124.406 85.1091 124.31 84.4251 124.31C83.9451 124.31 83.4531 124.436 82.9491 124.688C82.4451 124.928 82.0311 125.318 81.7071 125.858H81.6531V121.016H79.0971Z" fill="black"/>
<defs>
<filter id="filter0_d" x="0" y="0" width="198.114" height="255" filterUnits="userSpaceOnUse" color-interpolation-filters="sRGB">
<feFlood flood-opacity="0" result="BackgroundImageFix"/>
<feColorMatrix in="SourceAlpha" type="matrix" values="0 0 0 0 0 0 0 0 0 0 0 0 0 0 0 0 0 0 127 0"/>
<feOffset dx="5" dy="5"/>
<feColorMatrix type="matrix" values="0 0 0 0 0 0 0 0 0 0 0 0 0 0 0 0 0 0 1 0"/>
<feBlend mode="normal" in2="BackgroundImageFix" result="effect1_dropShadow"/>
<feBlend mode="normal" in="SourceGraphic" in2="effect1_dropShadow" result="shape"/>
</filter>
</defs>
</svg>
