<svg width="212" height="108" viewBox="0 0 212 108" fill="none" xmlns="http://www.w3.org/2000/svg">
<path d="M156.456 17.304V63H165.544V45.656C165.544 42.2853 166.099 39.8747 167.208 38.424C168.317 36.9307 170.109 36.184 172.584 36.184C174.76 36.184 176.275 36.8667 177.128 38.232C177.981 39.5547 178.408 41.5813 178.408 44.312V63H187.496V42.648C187.496 40.6 187.304 38.744 186.92 37.08C186.579 35.3733 185.96 33.944 185.064 32.792C184.168 31.5973 182.931 30.68 181.352 30.04C179.816 29.3573 177.832 29.016 175.4 29.016C173.693 29.016 171.944 29.464 170.152 30.36C168.36 31.2133 166.888 32.6 165.736 34.52H165.544V17.304H156.456Z" fill="#FF0000"/>
<path d="M14.288 17.304V63H23.376V51.608L26.896 48.216L35.984 63H46.992L33.104 42.072L45.584 29.912H34.832L23.376 41.816V17.304H14.288ZM94.686 63L106.974 17.304H97.118L89.63 48.792H89.502L81.694 17.304H72.286L64.35 48.408H64.222L56.99 17.304H46.942L59.038 63H69.214L76.83 31.896H76.958L84.702 63H94.686Z" fill="#0000FF"/>
<path d="M21.0693 92.148V105H23.6253V101.796L24.6153 100.842L27.1713 105H30.2673L26.3613 99.114L29.8713 95.694H26.8473L23.6253 99.042V92.148H21.0693ZM33.7992 94.254V92.148H31.2432V94.254H33.7992ZM31.2432 95.694V105H33.7992V95.694H31.2432ZM35.8838 92.148V105H38.4398V92.148H35.8838ZM42.7205 100.356C42.7205 99.984 42.7565 99.618 42.8285 99.258C42.9005 98.898 43.0205 98.58 43.1885 98.304C43.3685 98.028 43.6025 97.806 43.8905 97.638C44.1785 97.458 44.5385 97.368 44.9705 97.368C45.4025 97.368 45.7625 97.458 46.0505 97.638C46.3505 97.806 46.5845 98.028 46.7525 98.304C46.9325 98.58 47.0585 98.898 47.1305 99.258C47.2025 99.618 47.2385 99.984 47.2385 100.356C47.2385 100.728 47.2025 101.094 47.1305 101.454C47.0585 101.802 46.9325 102.12 46.7525 102.408C46.5845 102.684 46.3505 102.906 46.0505 103.074C45.7625 103.242 45.4025 103.326 44.9705 103.326C44.5385 103.326 44.1785 103.242 43.8905 103.074C43.6025 102.906 43.3685 102.684 43.1885 102.408C43.0205 102.12 42.9005 101.802 42.8285 101.454C42.7565 101.094 42.7205 100.728 42.7205 100.356ZM40.1645 100.356C40.1645 101.1 40.2785 101.772 40.5065 102.372C40.7345 102.972 41.0585 103.488 41.4785 103.92C41.8985 104.34 42.4025 104.664 42.9905 104.892C43.5785 105.12 44.2385 105.234 44.9705 105.234C45.7025 105.234 46.3625 105.12 46.9505 104.892C47.5505 104.664 48.0605 104.34 48.4805 103.92C48.9005 103.488 49.2245 102.972 49.4525 102.372C49.6805 101.772 49.7945 101.1 49.7945 100.356C49.7945 99.612 49.6805 98.94 49.4525 98.34C49.2245 97.728 48.9005 97.212 48.4805 96.792C48.0605 96.36 47.5505 96.03 46.9505 95.802C46.3625 95.562 45.7025 95.442 44.9705 95.442C44.2385 95.442 43.5785 95.562 42.9905 95.802C42.4025 96.03 41.8985 96.36 41.4785 96.792C41.0585 97.212 40.7345 97.728 40.5065 98.34C40.2785 98.94 40.1645 99.612 40.1645 100.356ZM62.0944 105L65.0284 95.694H62.4004L60.6904 101.994H60.6544L59.0704 95.694H56.5864L55.0384 102.012H55.0024L53.2924 95.694H50.5924L53.5444 105H56.1904L57.7744 98.754H57.8104L59.4664 105H62.0944ZM66.0085 98.556C66.0445 97.956 66.1945 97.458 66.4585 97.062C66.7225 96.666 67.0585 96.348 67.4665 96.108C67.8745 95.868 68.3305 95.7 68.8345 95.604C69.3505 95.496 69.8665 95.442 70.3825 95.442C70.8505 95.442 71.3245 95.478 71.8045 95.55C72.2845 95.61 72.7225 95.736 73.1185 95.928C73.5145 96.12 73.8385 96.39 74.0905 96.738C74.3425 97.074 74.4685 97.524 74.4685 98.088V102.93C74.4685 103.35 74.4925 103.752 74.5405 104.136C74.5885 104.52 74.6725 104.808 74.7925 105H72.2005C72.1525 104.856 72.1105 104.712 72.0745 104.568C72.0505 104.412 72.0325 104.256 72.0205 104.1C71.6125 104.52 71.1325 104.814 70.5805 104.982C70.0285 105.15 69.4645 105.234 68.8885 105.234C68.4445 105.234 68.0305 105.18 67.6465 105.072C67.2625 104.964 66.9265 104.796 66.6385 104.568C66.3505 104.34 66.1225 104.052 65.9545 103.704C65.7985 103.356 65.7205 102.942 65.7205 102.462C65.7205 101.934 65.8105 101.502 65.9905 101.166C66.1825 100.818 66.4225 100.542 66.7105 100.338C67.0105 100.134 67.3465 99.984 67.7185 99.888C68.1025 99.78 68.4865 99.696 68.8705 99.636C69.2545 99.576 69.6325 99.528 70.0045 99.492C70.3765 99.456 70.7065 99.402 70.9945 99.33C71.2825 99.258 71.5105 99.156 71.6785 99.024C71.8465 98.88 71.9245 98.676 71.9125 98.412C71.9125 98.136 71.8645 97.92 71.7685 97.764C71.6845 97.596 71.5645 97.47 71.4085 97.386C71.2645 97.29 71.0905 97.23 70.8865 97.206C70.6945 97.17 70.4845 97.152 70.2565 97.152C69.7525 97.152 69.3565 97.26 69.0685 97.476C68.7805 97.692 68.6125 98.052 68.5645 98.556H66.0085ZM71.9125 100.446C71.8045 100.542 71.6665 100.62 71.4985 100.68C71.3425 100.728 71.1685 100.77 70.9765 100.806C70.7965 100.842 70.6045 100.872 70.4005 100.896C70.1965 100.92 69.9925 100.95 69.7885 100.986C69.5965 101.022 69.4045 101.07 69.2125 101.13C69.0325 101.19 68.8705 101.274 68.7265 101.382C68.5945 101.478 68.4865 101.604 68.4025 101.76C68.3185 101.916 68.2765 102.114 68.2765 102.354C68.2765 102.582 68.3185 102.774 68.4025 102.93C68.4865 103.086 68.6005 103.212 68.7445 103.308C68.8885 103.392 69.0565 103.452 69.2485 103.488C69.4405 103.524 69.6385 103.542 69.8425 103.542C70.3465 103.542 70.7365 103.458 71.0125 103.29C71.2885 103.122 71.4925 102.924 71.6245 102.696C71.7565 102.456 71.8345 102.216 71.8585 101.976C71.8945 101.736 71.9125 101.544 71.9125 101.4V100.446ZM79.6925 95.694V92.904H77.1365V95.694H75.5885V97.404H77.1365V102.894C77.1365 103.362 77.2145 103.74 77.3705 104.028C77.5265 104.316 77.7365 104.538 78.0005 104.694C78.2765 104.85 78.5885 104.952 78.9365 105C79.2965 105.06 79.6745 105.09 80.0705 105.09C80.3225 105.09 80.5805 105.084 80.8445 105.072C81.1085 105.06 81.3485 105.036 81.5645 105V103.02C81.4445 103.044 81.3185 103.062 81.1865 103.074C81.0545 103.086 80.9165 103.092 80.7725 103.092C80.3405 103.092 80.0525 103.02 79.9085 102.876C79.7645 102.732 79.6925 102.444 79.6925 102.012V97.404H81.5645V95.694H79.6925ZM86.0206 95.694V92.904H83.4646V95.694H81.9166V97.404H83.4646V102.894C83.4646 103.362 83.5426 103.74 83.6986 104.028C83.8546 104.316 84.0646 104.538 84.3286 104.694C84.6046 104.85 84.9166 104.952 85.2646 105C85.6246 105.06 86.0026 105.09 86.3986 105.09C86.6506 105.09 86.9086 105.084 87.1726 105.072C87.4366 105.06 87.6766 105.036 87.8926 105V103.02C87.7726 103.044 87.6466 103.062 87.5146 103.074C87.3826 103.086 87.2446 103.092 87.1006 103.092C86.6686 103.092 86.3806 103.02 86.2366 102.876C86.0926 102.732 86.0206 102.444 86.0206 102.012V97.404H87.8926V95.694H86.0206Z" fill="black"/>
<path d="M155.302 92.148V105H157.858V100.122C157.858 99.174 158.014 98.496 158.326 98.088C158.638 97.668 159.142 97.458 159.838 97.458C160.45 97.458 160.876 97.65 161.116 98.034C161.356 98.406 161.476 98.976 161.476 99.744V105H164.032V99.276C164.032 98.7 163.978 98.178 163.87 97.71C163.774 97.23 163.6 96.828 163.348 96.504C163.096 96.168 162.748 95.91 162.304 95.73C161.872 95.538 161.314 95.442 160.63 95.442C160.15 95.442 159.658 95.568 159.154 95.82C158.65 96.06 158.236 96.45 157.912 96.99H157.858V92.148H155.302ZM168.24 100.356C168.24 99.984 168.276 99.618 168.348 99.258C168.42 98.898 168.54 98.58 168.708 98.304C168.888 98.028 169.122 97.806 169.41 97.638C169.698 97.458 170.058 97.368 170.49 97.368C170.922 97.368 171.282 97.458 171.57 97.638C171.87 97.806 172.104 98.028 172.272 98.304C172.452 98.58 172.578 98.898 172.65 99.258C172.722 99.618 172.758 99.984 172.758 100.356C172.758 100.728 172.722 101.094 172.65 101.454C172.578 101.802 172.452 102.12 172.272 102.408C172.104 102.684 171.87 102.906 171.57 103.074C171.282 103.242 170.922 103.326 170.49 103.326C170.058 103.326 169.698 103.242 169.41 103.074C169.122 102.906 168.888 102.684 168.708 102.408C168.54 102.12 168.42 101.802 168.348 101.454C168.276 101.094 168.24 100.728 168.24 100.356ZM165.684 100.356C165.684 101.1 165.798 101.772 166.026 102.372C166.254 102.972 166.578 103.488 166.998 103.92C167.418 104.34 167.922 104.664 168.51 104.892C169.098 105.12 169.758 105.234 170.49 105.234C171.222 105.234 171.882 105.12 172.47 104.892C173.07 104.664 173.58 104.34 174 103.92C174.42 103.488 174.744 102.972 174.972 102.372C175.2 101.772 175.314 101.1 175.314 100.356C175.314 99.612 175.2 98.94 174.972 98.34C174.744 97.728 174.42 97.212 174 96.792C173.58 96.36 173.07 96.03 172.47 95.802C171.882 95.562 171.222 95.442 170.49 95.442C169.758 95.442 169.098 95.562 168.51 95.802C167.922 96.03 167.418 96.36 166.998 96.792C166.578 97.212 166.254 97.728 166.026 98.34C165.798 98.94 165.684 99.612 165.684 100.356ZM185.706 105V95.694H183.15V100.572C183.15 101.52 182.994 102.204 182.682 102.624C182.37 103.032 181.866 103.236 181.17 103.236C180.558 103.236 180.132 103.05 179.892 102.678C179.652 102.294 179.532 101.718 179.532 100.95V95.694H176.976V101.418C176.976 101.994 177.024 102.522 177.12 103.002C177.228 103.47 177.408 103.872 177.66 104.208C177.912 104.532 178.254 104.784 178.686 104.964C179.13 105.144 179.694 105.234 180.378 105.234C180.918 105.234 181.446 105.114 181.962 104.874C182.478 104.634 182.898 104.244 183.222 103.704H183.276V105H185.706ZM187.646 95.694V105H190.202V100.806C190.202 100.386 190.244 99.996 190.328 99.636C190.412 99.276 190.55 98.964 190.742 98.7C190.946 98.424 191.21 98.208 191.534 98.052C191.858 97.896 192.254 97.818 192.722 97.818C192.878 97.818 193.04 97.83 193.208 97.854C193.376 97.866 193.52 97.884 193.64 97.908V95.532C193.436 95.472 193.25 95.442 193.082 95.442C192.758 95.442 192.446 95.49 192.146 95.586C191.846 95.682 191.564 95.82 191.3 96C191.036 96.168 190.802 96.378 190.598 96.63C190.394 96.87 190.232 97.134 190.112 97.422H190.076V95.694H187.646Z" fill="black"/>
<path d="M106 75V75C106 76.6183 104.688 77.9303 103.07 77.9303H57.0262" stroke="#ADADAD" stroke-linecap="round" stroke-linejoin="round"/>
<path d="M53.5005 80.8606V80.8606C53.5005 79.2422 54.8124 77.9303 56.4307 77.9303L102.474 77.9303" stroke="#ADADAD" stroke-linecap="round" stroke-linejoin="round"/>
<path d="M1.00002 75.2351V75.2351C1.00002 76.8534 2.31195 78.1654 3.9303 78.1654H49.9738" stroke="#ADADAD" stroke-linecap="round" stroke-linejoin="round"/>
<path d="M53.5001 81.0956V81.0956C53.5001 79.4773 52.1881 78.1654 50.5698 78.1654L4.52628 78.1654" stroke="#ADADAD" stroke-linecap="round" stroke-linejoin="round"/>
<path d="M205 75V75C205 76.6183 203.688 77.9303 202.07 77.9303H175.616" stroke="#ADADAD" stroke-linecap="round" stroke-linejoin="round"/>
<path d="M173.5 80.8606V80.8606C173.5 79.2422 174.812 77.9303 176.431 77.9303L202.885 77.9303" stroke="#ADADAD" stroke-linecap="round" stroke-linejoin="round"/>
<path d="M142 75.2351V75.2351C142 76.8534 143.312 78.1654 144.93 78.1654H171.384" stroke="#ADADAD" stroke-linecap="round" stroke-linejoin="round"/>
<path d="M173.5 81.0956V81.0956C173.5 79.4773 172.188 78.1654 170.57 78.1654L144.116 78.1654" stroke="#ADADAD" stroke-linecap="round" stroke-linejoin="round"/>
<circle cx="130" cy="41" r="7" fill="black"/>
</svg>
